<?xml version="1.0" encoding="UTF-8" standalone="no"?>
<!-- Generator: Adobe Illustrator 16.0.0, SVG Export Plug-In . SVG Version: 6.00 Build 0)  -->

<svg
   xmlns:dc="http://purl.org/dc/elements/1.1/"
   xmlns:cc="http://creativecommons.org/ns#"
   xmlns:rdf="http://www.w3.org/1999/02/22-rdf-syntax-ns#"
   xmlns:svg="http://www.w3.org/2000/svg"
   xmlns="http://www.w3.org/2000/svg"
   xmlns:sodipodi="http://sodipodi.sourceforge.net/DTD/sodipodi-0.dtd"
   xmlns:inkscape="http://www.inkscape.org/namespaces/inkscape"
   version="1.1"
   id="Laag_1"
   x="0px"
   y="0px"
   width="750px"
   height="750px"
   viewBox="0 0 750 750"
   enable-background="new 0 0 750 750"
   xml:space="preserve"
   sodipodi:docname="Logo NW.svg"
   inkscape:version="0.92.2 5c3e80d, 2017-08-06"><metadata
     id="metadata17"><rdf:RDF><cc:Work
         rdf:about=""><dc:format>image/svg+xml</dc:format><dc:type
           rdf:resource="http://purl.org/dc/dcmitype/StillImage" /><dc:title></dc:title></cc:Work></rdf:RDF></metadata><defs
     id="defs15" /><sodipodi:namedview
     pagecolor="#ffffff"
     bordercolor="#666666"
     borderopacity="1"
     objecttolerance="10"
     gridtolerance="10"
     guidetolerance="10"
     inkscape:pageopacity="0"
     inkscape:pageshadow="2"
     inkscape:window-width="1440"
     inkscape:window-height="855"
     id="namedview13"
     showgrid="false"
     inkscape:zoom="0.44500587"
     inkscape:cx="207.45515"
     inkscape:cy="388.03127"
     inkscape:window-x="0"
     inkscape:window-y="1"
     inkscape:window-maximized="1"
     inkscape:current-layer="Laag_1" /><rect
     x="0.046999998"
     y="0.398"
     width="750"
     height="750"
     id="rect2"
     ry="193.25587"
     style="fill:#154273" /><g
     id="g10"><path
       fill="#FFFFFF"
       d="M184.047,380.744c0-27.151-12.251-37.594-34.698-37.594c-13.629,0-23.302,1.671-36.302,6.684v155.564h-49   V299.708l48-2.088v15.455c17-12.113,32.24-17.126,52.282-17.126c42.892,0,68.718,25.898,68.718,73.933v135.516h-49V380.744z"
       id="path4" /><path
       fill="#FF0000"
       stroke="#FF0000"
       stroke-miterlimit="10"
       d="M279.547,193.861c14-4.178,31.491-6.266,47.524-6.266   c44.094,0,63.245,21.303,63.245,53.466c0,23.392-14.474,45.53-38.925,58.479l-11.646,6.319   c-15.633,8.354-23.672,17.039-27.279,28.039h82.082v33H273.984l-2.405-31.172c2.806-19.215,17.637-38.352,38.882-51.301   l16.034-9.568c14.43-8.772,21.245-17.107,21.245-28.385c0-12.531-8.242-20.875-29.085-20.875c-14.03,0-25.107,1.263-39.107,5.858   V193.861z"
       id="path6" /><path
       fill="#FFFFFF"
       d="M654.785,505.398h-66.541l-28.86-113h-1.203l-33.67,113h-63.735l-50.506-207h56.518l30.065,167h2.004   l40.085-128.613l-10.021-38.387h48.903l43.691,167h2.004l31.267-167h51.309L654.785,505.398z"
       id="path8" /></g></svg>